<svg width="1412" height="236" viewBox="0 0 1412 236" fill="none" xmlns="http://www.w3.org/2000/svg">
<circle cx="108.852" cy="128.728" r="82.327" fill="#EFEFEF"/>
<path d="M197.9 113.765C197.36 113.765 196.842 113.55 196.46 113.168C196.078 112.786 195.864 112.268 195.864 111.728L195.175 109.339C190.352 70.0425 148.049 38.0731 108.753 38.0731C69.4568 38.0731 26.4645 70.0425 22.3309 109.339V111.728C22.3309 112.268 22.1164 112.786 21.7344 113.168C21.3525 113.55 20.8345 113.765 20.2944 113.765C19.7542 113.765 19.2362 113.55 18.8543 113.168C18.4724 112.786 18.2578 112.268 18.2578 111.728V109.339C22.3914 67.7984 67.2091 34 108.753 34C150.297 34 194.425 67.7948 199.248 109.339L199.937 111.728C199.937 112.268 199.722 112.786 199.34 113.168C198.958 113.55 198.44 113.765 197.9 113.765Z" fill="#EFEFEF"/>
<path d="M195.037 108.404H204.083C211.262 108.404 217.083 114.225 217.083 121.404V131.917C217.083 139.097 211.262 144.917 204.083 144.917H195.037V108.404Z" fill="#EFEFEF"/>
<path d="M22.391 144.918H13.3453C6.16557 144.918 0.34527 139.097 0.34527 131.918V121.405C0.34527 114.225 6.16557 108.404 13.3453 108.404H22.391L22.391 144.918Z" fill="#EFEFEF"/>
<path d="M101.825 84.2918H49.2594L55.4597 96.6925H89.9062V122.872L60.0756 105.993L101.618 194.52H109.196V183.842L85.0837 131.828H101.825V84.2918Z" fill="url(#paint0_linear_7_98)" stroke="url(#paint1_linear_7_98)" stroke-linecap="round"/>
<path d="M116.568 84.2918H169.133L162.933 96.6925H128.486V122.872L158.317 105.993L116.774 194.52H109.196V183.842L133.309 131.828H116.568V84.2918Z" fill="url(#paint2_linear_7_98)" stroke="url(#paint3_linear_7_98)" stroke-linecap="round"/>
<path d="M286.613 63.5039C298.273 63.5039 307.883 64.9102 315.441 67.7227C323.059 70.5352 328.713 74.7832 332.404 80.4668C336.096 86.1504 337.941 93.3281 337.941 102C337.941 107.859 336.828 112.986 334.602 117.381C332.375 121.775 329.445 125.496 325.812 128.543C322.18 131.59 318.254 134.08 314.035 136.014L351.828 192H321.594L290.92 142.693H276.418V192H249.172V63.5039H286.613ZM284.68 85.8281H276.418V120.545H285.207C294.23 120.545 300.676 119.051 304.543 116.062C308.469 113.016 310.432 108.562 310.432 102.703C310.432 96.6094 308.322 92.2734 304.104 89.6953C299.943 87.1172 293.469 85.8281 284.68 85.8281ZM406.145 91.7168C419.328 91.7168 429.436 94.5879 436.467 100.33C443.498 106.072 447.014 114.803 447.014 126.521V192H428.293L423.107 178.641H422.404C419.592 182.156 416.721 185.027 413.791 187.254C410.861 189.48 407.492 191.121 403.684 192.176C399.875 193.23 395.246 193.758 389.797 193.758C383.996 193.758 378.781 192.645 374.152 190.418C369.582 188.191 365.979 184.793 363.342 180.223C360.705 175.594 359.387 169.734 359.387 162.645C359.387 152.215 363.049 144.539 370.373 139.617C377.697 134.637 388.684 131.883 403.332 131.355L420.383 130.828V126.521C420.383 121.365 419.035 117.586 416.34 115.184C413.645 112.781 409.895 111.58 405.09 111.58C400.344 111.58 395.686 112.254 391.115 113.602C386.545 114.949 381.975 116.648 377.404 118.699L368.527 100.594C373.742 97.8398 379.572 95.6719 386.018 94.0898C392.521 92.5078 399.23 91.7168 406.145 91.7168ZM420.383 146.473L410.012 146.824C401.34 147.059 395.305 148.611 391.906 151.482C388.566 154.354 386.896 158.133 386.896 162.82C386.896 166.922 388.098 169.852 390.5 171.609C392.902 173.309 396.037 174.158 399.904 174.158C405.646 174.158 410.48 172.459 414.406 169.061C418.391 165.662 420.383 160.828 420.383 154.559V146.473ZM505.812 193.758C494.855 193.758 485.92 189.48 479.006 180.926C472.15 172.312 468.723 159.686 468.723 143.045C468.723 126.229 472.209 113.514 479.182 104.9C486.154 96.2285 495.266 91.8926 506.516 91.8926C511.203 91.8926 515.334 92.5371 518.908 93.8262C522.482 95.1152 525.559 96.8438 528.137 99.0117C530.773 101.18 533 103.611 534.816 106.307H535.695C535.344 104.432 534.904 101.678 534.377 98.0449C533.908 94.3535 533.674 90.5742 533.674 86.707V55.2422H560.568V192H540.002L534.816 179.256H533.674C531.975 181.951 529.836 184.412 527.258 186.639C524.738 188.807 521.721 190.535 518.205 191.824C514.689 193.113 510.559 193.758 505.812 193.758ZM515.217 172.4C522.541 172.4 527.697 170.232 530.686 165.896C533.732 161.502 535.344 154.91 535.52 146.121V143.221C535.52 133.67 534.055 126.375 531.125 121.336C528.195 116.238 522.746 113.689 514.777 113.689C508.859 113.689 504.23 116.238 500.891 121.336C497.551 126.434 495.881 133.787 495.881 143.396C495.881 153.006 497.551 160.242 500.891 165.105C504.289 169.969 509.064 172.4 515.217 172.4ZM615.412 93.7383V192H588.605V93.7383H615.412ZM602.053 55.2422C606.037 55.2422 609.465 56.1797 612.336 58.0547C615.207 59.8711 616.643 63.2988 616.643 68.3379C616.643 73.3184 615.207 76.7754 612.336 78.709C609.465 80.584 606.037 81.5215 602.053 81.5215C598.01 81.5215 594.553 80.584 591.682 78.709C588.869 76.7754 587.463 73.3184 587.463 68.3379C587.463 63.2988 588.869 59.8711 591.682 58.0547C594.553 56.1797 598.01 55.2422 602.053 55.2422ZM732.922 142.693C732.922 150.896 731.809 158.162 729.582 164.49C727.414 170.818 724.221 176.18 720.002 180.574C715.842 184.91 710.803 188.191 704.885 190.418C699.025 192.645 692.404 193.758 685.021 193.758C678.107 193.758 671.75 192.645 665.949 190.418C660.207 188.191 655.197 184.91 650.92 180.574C646.701 176.18 643.42 170.818 641.076 164.49C638.791 158.162 637.648 150.896 637.648 142.693C637.648 131.795 639.582 122.566 643.449 115.008C647.316 107.449 652.824 101.707 659.973 97.7812C667.121 93.8555 675.646 91.8926 685.549 91.8926C694.748 91.8926 702.893 93.8555 709.982 97.7812C717.131 101.707 722.727 107.449 726.77 115.008C730.871 122.566 732.922 131.795 732.922 142.693ZM664.982 142.693C664.982 149.139 665.686 154.559 667.092 158.953C668.498 163.348 670.695 166.658 673.684 168.885C676.672 171.111 680.568 172.225 685.373 172.225C690.119 172.225 693.957 171.111 696.887 168.885C699.875 166.658 702.043 163.348 703.391 158.953C704.797 154.559 705.5 149.139 705.5 142.693C705.5 136.189 704.797 130.799 703.391 126.521C702.043 122.186 699.875 118.934 696.887 116.766C693.898 114.598 690.002 113.514 685.197 113.514C678.107 113.514 672.951 115.945 669.729 120.809C666.564 125.672 664.982 132.967 664.982 142.693ZM879.787 156.316C879.787 163.934 877.941 170.555 874.25 176.18C870.559 181.805 865.168 186.141 858.078 189.188C851.047 192.234 842.492 193.758 832.414 193.758C827.961 193.758 823.596 193.465 819.318 192.879C815.1 192.293 811.027 191.443 807.102 190.33C803.234 189.158 799.543 187.723 796.027 186.023V160.711C802.121 163.406 808.449 165.838 815.012 168.006C821.574 170.174 828.078 171.258 834.523 171.258C838.977 171.258 842.551 170.672 845.246 169.5C848 168.328 849.992 166.717 851.223 164.666C852.453 162.615 853.068 160.271 853.068 157.635C853.068 154.412 851.984 151.658 849.816 149.373C847.648 147.088 844.66 144.949 840.852 142.957C837.102 140.965 832.854 138.826 828.107 136.541C825.119 135.135 821.867 133.436 818.352 131.443C814.836 129.393 811.496 126.902 808.332 123.973C805.168 121.043 802.561 117.498 800.51 113.338C798.518 109.119 797.521 104.08 797.521 98.2207C797.521 90.5449 799.279 83.9824 802.795 78.5332C806.311 73.084 811.32 68.9238 817.824 66.0527C824.387 63.123 832.121 61.6582 841.027 61.6582C847.707 61.6582 854.064 62.4492 860.1 64.0312C866.193 65.5547 872.551 67.7812 879.172 70.7109L870.383 91.8926C864.465 89.4902 859.162 87.6445 854.475 86.3555C849.787 85.0078 845.012 84.334 840.148 84.334C836.75 84.334 833.85 84.8906 831.447 86.0039C829.045 87.0586 827.229 88.582 825.998 90.5742C824.768 92.5078 824.152 94.7637 824.152 97.3418C824.152 100.389 825.031 102.967 826.789 105.076C828.605 107.127 831.301 109.119 834.875 111.053C838.508 112.986 843.02 115.242 848.41 117.82C854.973 120.926 860.568 124.178 865.197 127.576C869.885 130.916 873.488 134.871 876.008 139.441C878.527 143.953 879.787 149.578 879.787 156.316ZM955.637 91.8926C966.711 91.8926 975.646 96.1992 982.443 104.812C989.299 113.426 992.727 126.053 992.727 142.693C992.727 153.826 991.115 163.201 987.893 170.818C984.67 178.377 980.217 184.09 974.533 187.957C968.85 191.824 962.316 193.758 954.934 193.758C950.188 193.758 946.115 193.172 942.717 192C939.318 190.77 936.418 189.217 934.016 187.342C931.613 185.408 929.533 183.357 927.775 181.189H926.369C926.838 183.533 927.189 185.936 927.424 188.396C927.658 190.857 927.775 193.26 927.775 195.604V235.242H900.969V93.7383H922.766L926.545 106.482H927.775C929.533 103.846 931.672 101.414 934.191 99.1875C936.711 96.9609 939.729 95.2031 943.244 93.9141C946.818 92.5664 950.949 91.8926 955.637 91.8926ZM947.023 113.338C942.336 113.338 938.615 114.305 935.861 116.238C933.107 118.172 931.086 121.072 929.797 124.939C928.566 128.807 927.893 133.699 927.775 139.617V142.518C927.775 148.846 928.361 154.207 929.533 158.602C930.764 162.996 932.785 166.336 935.598 168.621C938.469 170.906 942.395 172.049 947.375 172.049C951.477 172.049 954.846 170.906 957.482 168.621C960.119 166.336 962.082 162.996 963.371 158.602C964.719 154.148 965.393 148.729 965.393 142.342C965.393 132.732 963.898 125.496 960.91 120.633C957.922 115.77 953.293 113.338 947.023 113.338ZM1055.13 91.7168C1068.31 91.7168 1078.42 94.5879 1085.45 100.33C1092.48 106.072 1096 114.803 1096 126.521V192H1077.28L1072.09 178.641H1071.39C1068.58 182.156 1065.71 185.027 1062.78 187.254C1059.85 189.48 1056.48 191.121 1052.67 192.176C1048.86 193.23 1044.23 193.758 1038.78 193.758C1032.98 193.758 1027.77 192.645 1023.14 190.418C1018.57 188.191 1014.96 184.793 1012.33 180.223C1009.69 175.594 1008.37 169.734 1008.37 162.645C1008.37 152.215 1012.03 144.539 1019.36 139.617C1026.68 134.637 1037.67 131.883 1052.32 131.355L1069.37 130.828V126.521C1069.37 121.365 1068.02 117.586 1065.32 115.184C1062.63 112.781 1058.88 111.58 1054.07 111.58C1049.33 111.58 1044.67 112.254 1040.1 113.602C1035.53 114.949 1030.96 116.648 1026.39 118.699L1017.51 100.594C1022.73 97.8398 1028.56 95.6719 1035 94.0898C1041.51 92.5078 1048.21 91.7168 1055.13 91.7168ZM1069.37 146.473L1059 146.824C1050.32 147.059 1044.29 148.611 1040.89 151.482C1037.55 154.354 1035.88 158.133 1035.88 162.82C1035.88 166.922 1037.08 169.852 1039.48 171.609C1041.89 173.309 1045.02 174.158 1048.89 174.158C1054.63 174.158 1059.46 172.459 1063.39 169.061C1067.38 165.662 1069.37 160.828 1069.37 154.559V146.473ZM1163.59 193.758C1153.86 193.758 1145.57 192 1138.71 188.484C1131.86 184.91 1126.64 179.402 1123.07 171.961C1119.49 164.52 1117.71 154.998 1117.71 143.396C1117.71 131.385 1119.73 121.6 1123.77 114.041C1127.87 106.424 1133.53 100.828 1140.73 97.2539C1148 93.6797 1156.41 91.8926 1165.96 91.8926C1172.76 91.8926 1178.62 92.5664 1183.54 93.9141C1188.52 95.2031 1192.85 96.7559 1196.54 98.5723L1188.63 119.314C1184.42 117.615 1180.49 116.238 1176.86 115.184C1173.22 114.07 1169.59 113.514 1165.96 113.514C1161.27 113.514 1157.38 114.627 1154.27 116.854C1151.16 119.021 1148.85 122.303 1147.33 126.697C1145.8 131.092 1145.04 136.6 1145.04 143.221C1145.04 149.725 1145.86 155.115 1147.5 159.393C1149.14 163.67 1151.52 166.863 1154.62 168.973C1157.73 171.023 1161.51 172.049 1165.96 172.049C1171.53 172.049 1176.48 171.316 1180.81 169.852C1185.15 168.328 1189.37 166.219 1193.47 163.523V186.463C1189.37 189.041 1185.06 190.887 1180.55 192C1176.1 193.172 1170.44 193.758 1163.59 193.758ZM1256.84 91.8926C1265.92 91.8926 1273.74 93.6504 1280.3 97.166C1286.87 100.623 1291.94 105.662 1295.51 112.283C1299.08 118.904 1300.87 126.99 1300.87 136.541V149.549H1237.5C1237.79 157.107 1240.05 163.055 1244.27 167.391C1248.55 171.668 1254.46 173.807 1262.02 173.807C1268.29 173.807 1274.04 173.162 1279.25 171.873C1284.46 170.584 1289.83 168.65 1295.33 166.072V186.814C1290.47 189.217 1285.37 190.975 1280.04 192.088C1274.77 193.201 1268.35 193.758 1260.79 193.758C1250.95 193.758 1242.22 191.941 1234.6 188.309C1227.04 184.676 1221.1 179.139 1216.76 171.697C1212.48 164.256 1210.34 154.881 1210.34 143.572C1210.34 132.088 1212.28 122.537 1216.14 114.92C1220.07 107.244 1225.52 101.502 1232.49 97.6934C1239.46 93.8262 1247.58 91.8926 1256.84 91.8926ZM1257.01 110.965C1251.8 110.965 1247.46 112.635 1244.01 115.975C1240.61 119.314 1238.64 124.559 1238.12 131.707H1275.73C1275.68 127.723 1274.94 124.178 1273.54 121.072C1272.19 117.967 1270.14 115.506 1267.38 113.689C1264.69 111.873 1261.23 110.965 1257.01 110.965Z" fill="url(#paint4_linear_7_98)"/>
<defs>
<linearGradient id="paint0_linear_7_98" x1="49.4661" y1="140.784" x2="160.039" y2="140.784" gradientUnits="userSpaceOnUse">
<stop stop-color="#F1786F"/>
<stop offset="1" stop-color="#DD2C75"/>
</linearGradient>
<linearGradient id="paint1_linear_7_98" x1="49.4661" y1="140.784" x2="162.795" y2="140.784" gradientUnits="userSpaceOnUse">
<stop stop-color="#F1786F"/>
<stop offset="1" stop-color="#DD2C75"/>
</linearGradient>
<linearGradient id="paint2_linear_7_98" x1="50.9817" y1="139.406" x2="169.133" y2="139.406" gradientUnits="userSpaceOnUse">
<stop stop-color="#F1786F"/>
<stop offset="1" stop-color="#DD2C75"/>
</linearGradient>
<linearGradient id="paint3_linear_7_98" x1="51.6706" y1="139.406" x2="169.133" y2="139.406" gradientUnits="userSpaceOnUse">
<stop stop-color="#F1786F"/>
<stop offset="1" stop-color="#DD2C75"/>
</linearGradient>
<linearGradient id="paint4_linear_7_98" x1="233" y1="116.185" x2="1412" y2="116.185" gradientUnits="userSpaceOnUse">
<stop stop-color="#F1786F"/>
<stop offset="1" stop-color="#DD2C75"/>
</linearGradient>
</defs>
</svg>
